<svg width="40" height="40" viewBox="0 0 40 40" fill="none" xmlns="http://www.w3.org/2000/svg">
<g filter="url(#filter0_d_424_184)">
<path d="M36 16C36 24.8366 28.8366 32 20 32C11.1634 32 4 24.8366 4 16C4 7.16344 11.1634 0 20 0C28.8366 0 36 7.16344 36 16Z" fill="#5D7580"/>
<path d="M9.552 21.992C9.44533 21.8747 9.376 21.7733 9.344 21.688C9.312 21.6133 9.30667 21.5173 9.328 21.4C9.36 21.2933 9.40267 21.1387 9.456 20.936C9.54133 20.5947 9.632 20.312 9.728 20.088C9.83467 19.8533 9.936 19.6133 10.032 19.368C10.1387 19.112 10.2293 18.7867 10.304 18.392C10.4747 17.9973 10.624 17.624 10.752 17.272C10.8907 16.92 10.9973 16.632 11.072 16.408C11.1467 16.184 11.184 16.072 11.184 16.072C11.1947 16.0293 11.2427 15.9173 11.328 15.736C11.4133 15.5547 11.52 15.336 11.648 15.08C11.7867 14.8133 11.9147 14.5467 12.032 14.28C12.2133 13.768 12.3573 13.3307 12.464 12.968C12.5813 12.5947 12.6987 12.2587 12.816 11.96C12.9333 11.6613 13.088 11.368 13.28 11.08C13.408 10.856 13.5573 10.712 13.728 10.648C13.8987 10.584 14.0587 10.5893 14.208 10.664C14.368 10.728 14.48 10.8667 14.544 11.08C14.5973 11.1867 14.64 11.3147 14.672 11.464C14.7147 11.6133 14.752 11.832 14.784 12.12C14.816 12.3973 14.8373 12.792 14.848 13.304C14.8693 13.912 14.8747 14.5147 14.864 15.112C14.8533 15.6987 14.8533 16.2427 14.864 16.744C14.8853 17.2453 14.944 17.672 15.04 18.024C15.072 18.216 15.1147 18.4507 15.168 18.728C15.232 18.9947 15.296 19.2613 15.36 19.528C15.4347 19.7947 15.504 20.0187 15.568 20.2C15.6427 20.3813 15.7013 20.472 15.744 20.472C15.7973 20.472 15.8667 20.4027 15.952 20.264C16.048 20.1253 16.1653 19.8747 16.304 19.512C16.4533 19.1493 16.6293 18.6373 16.832 17.976C17.0347 17.304 17.264 16.4453 17.52 15.4C17.5733 15.2187 17.6427 14.9253 17.728 14.52C17.824 14.1147 17.8933 13.704 17.936 13.288C18.0107 13.0213 18.0853 12.728 18.16 12.408C18.2347 12.088 18.2987 11.8053 18.352 11.56C18.416 11.3147 18.448 11.176 18.448 11.144C18.448 11.0693 18.448 11.0053 18.448 10.952C18.4587 10.8987 18.4587 10.8453 18.448 10.792C18.5013 10.792 18.5493 10.7227 18.592 10.584C18.6347 10.4347 18.656 10.3067 18.656 10.2C18.656 10.0187 18.6773 9.87467 18.72 9.768C18.7733 9.65067 18.8267 9.56533 18.88 9.512C18.912 9.42667 18.992 9.38933 19.12 9.4C19.248 9.4 19.376 9.432 19.504 9.496C19.632 9.56 19.712 9.64533 19.744 9.752C19.7653 9.86933 19.7333 10.136 19.648 10.552C19.5733 10.9573 19.456 11.5067 19.296 12.2C19.296 12.3173 19.264 12.5093 19.2 12.776C19.136 13.0427 19.0667 13.3253 18.992 13.624C18.928 13.9227 18.88 14.1787 18.848 14.392C18.8053 14.6693 18.7573 14.9307 18.704 15.176C18.6507 15.4107 18.5973 15.5227 18.544 15.512C18.2667 16.7173 17.9733 17.7467 17.664 18.6C17.3653 19.4427 17.0987 20.1307 16.864 20.664C16.608 21.2507 16.3253 21.6027 16.016 21.72C15.7173 21.848 15.3973 21.6933 15.056 21.256C14.8533 20.9787 14.6933 20.7067 14.576 20.44C14.4587 20.1627 14.3627 19.8427 14.288 19.48C14.2133 19.1067 14.1227 18.648 14.016 18.104C13.856 17.6667 13.7653 17.224 13.744 16.776C13.7333 16.328 13.7493 15.8693 13.792 15.4C13.8347 14.92 13.8667 14.424 13.888 13.912C13.8773 13.4 13.856 13.0587 13.824 12.888C13.792 12.7173 13.728 12.728 13.632 12.92C13.5467 13.1013 13.4027 13.4747 13.2 14.04C13.1253 14.2427 13.024 14.488 12.896 14.776C12.7787 15.064 12.6613 15.352 12.544 15.64C12.4267 15.9173 12.3253 16.1627 12.24 16.376C12.1547 16.5787 12.1013 16.7067 12.08 16.76C12.016 16.888 11.9413 17.0587 11.856 17.272C11.7707 17.4747 11.7013 17.6933 11.648 17.928C11.264 18.9307 10.976 19.7307 10.784 20.328C10.6027 20.9253 10.4693 21.3413 10.384 21.576C10.2773 21.8747 10.1653 22.072 10.048 22.168C9.93067 22.2747 9.76533 22.216 9.552 21.992Z" fill="white"/>
<path d="M22.1504 20.44C21.9264 20.632 21.665 20.744 21.3664 20.776C21.0784 20.808 20.7957 20.7653 20.5184 20.648C20.241 20.52 20.0117 20.328 19.8304 20.072C19.649 19.8373 19.5317 19.5707 19.4784 19.272C19.425 18.9627 19.4197 18.5627 19.4624 18.072C19.4944 17.656 19.6277 17.24 19.8624 16.824C20.097 16.3973 20.3797 16.0187 20.7104 15.688C21.0517 15.3573 21.3877 15.128 21.7184 15C21.8784 14.8933 22.0117 14.8453 22.1184 14.856C22.2357 14.856 22.4117 14.8667 22.6464 14.888C22.8917 14.92 23.073 14.968 23.1904 15.032C23.3184 15.096 23.4197 15.1813 23.4944 15.288C23.6544 15.448 23.761 15.608 23.8144 15.768C23.8677 15.9173 23.8944 16.0667 23.8944 16.216C23.8517 16.4507 23.6917 16.7387 23.4144 17.08C23.1477 17.4107 22.7957 17.6827 22.3584 17.896C22.1237 17.9707 21.8677 18.0027 21.5904 17.992C21.313 17.9813 21.0837 17.912 20.9024 17.784C20.6997 17.6987 20.5664 17.7147 20.5024 17.832C20.4384 17.9387 20.3797 18.2053 20.3264 18.632C20.2837 19.0373 20.3157 19.336 20.4224 19.528C20.529 19.7093 20.673 19.816 20.8544 19.848C21.0677 19.8907 21.233 19.9227 21.3504 19.944C21.4784 19.9547 21.633 19.9067 21.8144 19.8C21.985 19.6933 22.0917 19.6347 22.1344 19.624C22.177 19.6027 22.209 19.5813 22.2304 19.56C22.2624 19.528 22.3317 19.4587 22.4384 19.352C22.513 19.2773 22.5717 19.224 22.6144 19.192C22.657 19.1493 22.705 19.128 22.7584 19.128C22.8117 19.128 22.8597 19.1547 22.9024 19.208C22.945 19.2507 22.9877 19.2827 23.0304 19.304C23.137 19.304 23.1584 19.368 23.0944 19.496C23.041 19.624 22.929 19.7787 22.7584 19.96C22.5877 20.1307 22.385 20.2907 22.1504 20.44ZM22.1344 17.048C22.2517 16.9947 22.3744 16.92 22.5024 16.824C22.6304 16.7173 22.737 16.6053 22.8224 16.488C22.9184 16.36 22.9664 16.2533 22.9664 16.168C22.9664 16.0187 22.897 15.896 22.7584 15.8C22.6197 15.6933 22.4117 15.6773 22.1344 15.752C22.017 15.784 21.8837 15.864 21.7344 15.992C21.585 16.1093 21.441 16.2427 21.3024 16.392C21.1744 16.5413 21.0677 16.6747 20.9824 16.792C20.9077 16.9093 20.881 16.9787 20.9024 17C20.9344 17.0533 21.025 17.096 21.1744 17.128C21.3237 17.1493 21.489 17.1547 21.6704 17.144C21.8624 17.1333 22.017 17.1013 22.1344 17.048Z" fill="white"/>
<path d="M25.3375 20.504C25.1775 20.4827 25.0388 20.3707 24.9215 20.168C24.8148 19.9547 24.7508 19.7627 24.7295 19.592C24.7402 19.5067 24.7508 19.384 24.7615 19.224C24.7828 19.064 24.8042 18.8987 24.8255 18.728C24.8682 18.5253 24.9268 18.28 25.0015 17.992C25.0762 17.6933 25.1508 17.3947 25.2255 17.096C25.3108 16.7973 25.3855 16.5413 25.4495 16.328C25.5135 16.1147 25.5562 15.9867 25.5775 15.944C25.6308 15.8587 25.7162 15.8373 25.8335 15.88C25.9508 15.9227 26.0468 15.9867 26.1215 16.072C26.1855 16.1573 26.2228 16.2587 26.2335 16.376C26.2548 16.4933 26.2388 16.664 26.1855 16.888C26.1428 17.112 26.0575 17.4427 25.9295 17.88C25.8122 18.3067 25.7215 18.6533 25.6575 18.92C25.6042 19.176 25.5828 19.448 25.5935 19.736C25.5508 20.0987 25.5188 20.3227 25.4975 20.408C25.4762 20.4827 25.4228 20.5147 25.3375 20.504ZM27.1775 14.12C27.1348 14.152 27.0922 14.168 27.0495 14.168C27.0175 14.1573 26.9588 14.1253 26.8735 14.072C26.7988 14.0613 26.7028 14.0133 26.5855 13.928C26.4788 13.832 26.3828 13.736 26.2975 13.64C26.2228 13.5333 26.1855 13.4693 26.1855 13.448C26.1748 13.3413 26.1802 13.208 26.2015 13.048C26.2335 12.8773 26.2922 12.728 26.3775 12.6C26.4628 12.4613 26.5855 12.3867 26.7455 12.376C26.7882 12.376 26.8255 12.3813 26.8575 12.392C26.8895 12.4027 26.9855 12.44 27.1455 12.504C27.2308 12.664 27.3162 12.8453 27.4015 13.048C27.4868 13.24 27.5242 13.432 27.5135 13.624C27.5028 13.8053 27.3908 13.9707 27.1775 14.12Z" fill="white"/>
<path d="M28.0019 21C27.7992 21.0533 27.6339 21.0107 27.5059 20.872C27.3885 20.7333 27.3192 20.52 27.2979 20.232C27.2765 19.944 27.3085 19.6027 27.3939 19.208C27.4472 19.08 27.4899 18.9573 27.5219 18.84C27.5539 18.712 27.5699 18.6107 27.5699 18.536C27.5912 18.4293 27.6339 18.2747 27.6979 18.072C27.7619 17.8587 27.8312 17.64 27.9059 17.416C27.9805 17.192 28.0499 16.9947 28.1139 16.824C28.1885 16.6427 28.2365 16.5307 28.2579 16.488C28.3005 16.488 28.3379 16.4507 28.3699 16.376C28.4019 16.3013 28.4179 16.2267 28.4179 16.152C28.4179 16.0667 28.4339 15.9707 28.4659 15.864C28.5085 15.7573 28.5512 15.6827 28.5939 15.64C28.5939 15.5867 28.6045 15.528 28.6259 15.464C28.6579 15.3893 28.6739 15.3307 28.6739 15.288C28.6739 15.2453 28.6845 15.2027 28.7059 15.16C28.7379 15.1173 28.7539 15.0747 28.7539 15.032C28.8285 14.8933 28.9245 14.6747 29.0419 14.376C29.1699 14.0667 29.3032 13.7253 29.4419 13.352C29.5912 12.9787 29.7299 12.6107 29.8579 12.248C29.9859 11.8853 30.0872 11.5813 30.1619 11.336C30.2472 11.08 30.2899 10.9253 30.2899 10.872C30.2899 10.7867 30.3112 10.7227 30.3539 10.68C30.3965 10.6373 30.4605 10.616 30.5459 10.616C30.5779 10.584 30.6152 10.5627 30.6579 10.552C30.7112 10.5413 30.7592 10.536 30.8019 10.536C30.8019 10.536 30.8232 10.5573 30.8659 10.6C30.9085 10.6427 30.9725 10.7067 31.0579 10.792C31.1432 10.8667 31.1912 10.952 31.2019 11.048C31.2232 11.144 31.2339 11.256 31.2339 11.384C31.2339 11.5227 31.2179 11.6453 31.1859 11.752C31.1539 11.8587 31.0899 12.0133 30.9939 12.216C30.8979 12.4187 30.7485 12.7333 30.5459 13.16C30.4605 13.3733 30.3699 13.576 30.2739 13.768C30.1779 13.9493 30.1299 14.0613 30.1299 14.104C30.1299 14.1467 30.1085 14.2107 30.0659 14.296C30.0339 14.3813 29.9965 14.488 29.9539 14.616C29.9112 14.7013 29.8525 14.8293 29.7779 15C29.7032 15.16 29.6232 15.336 29.5379 15.528C29.4632 15.7093 29.3992 15.8693 29.3459 16.008C29.2925 16.136 29.2659 16.2107 29.2659 16.232C29.2659 16.2747 29.2605 16.3173 29.2499 16.36C29.2499 16.4027 29.2285 16.4453 29.1859 16.488C29.1432 16.488 29.1165 16.52 29.1059 16.584C29.1059 16.6373 29.1059 16.664 29.1059 16.664C29.1059 16.7707 29.0205 17.0533 28.8499 17.512C28.6792 18.0987 28.5192 18.6373 28.3699 19.128C28.2312 19.6187 28.1619 20.0133 28.1619 20.312C28.1619 20.568 28.1565 20.7387 28.1459 20.824C28.1352 20.8987 28.0872 20.9573 28.0019 21Z" fill="white"/>
<path d="M31.073 20.168C30.8703 20.2427 30.6997 20.28 30.561 20.28C30.433 20.2693 30.289 20.2053 30.129 20.088C29.9263 19.896 29.857 19.704 29.921 19.512C29.9957 19.3093 30.1717 19.112 30.449 18.92C30.641 18.8027 30.7797 18.7387 30.865 18.728C30.961 18.7173 31.105 18.7547 31.297 18.84C31.617 19.0427 31.7557 19.2667 31.713 19.512C31.681 19.7573 31.4677 19.976 31.073 20.168Z" fill="white"/>
</g>
<defs>
<filter id="filter0_d_424_184" x="0" y="0" width="40" height="40" filterUnits="userSpaceOnUse" color-interpolation-filters="sRGB">
<feFlood flood-opacity="0" result="BackgroundImageFix"/>
<feColorMatrix in="SourceAlpha" type="matrix" values="0 0 0 0 0 0 0 0 0 0 0 0 0 0 0 0 0 0 127 0" result="hardAlpha"/>
<feOffset dy="4"/>
<feGaussianBlur stdDeviation="2"/>
<feComposite in2="hardAlpha" operator="out"/>
<feColorMatrix type="matrix" values="0 0 0 0 0 0 0 0 0 0 0 0 0 0 0 0 0 0 0.25 0"/>
<feBlend mode="normal" in2="BackgroundImageFix" result="effect1_dropShadow_424_184"/>
<feBlend mode="normal" in="SourceGraphic" in2="effect1_dropShadow_424_184" result="shape"/>
</filter>
</defs>
</svg>
