<svg width="12" height="11" viewBox="0 0 12 11" fill="none" xmlns="http://www.w3.org/2000/svg">
<path d="M11.1524 5.45779C11.1514 5.44564 11.1494 5.43364 11.1475 5.42166C11.1456 5.40938 11.1445 5.39681 11.1417 5.38455C11.1046 5.22541 10.993 5.09993 10.8497 5.03885L0.720764 0.0515446C0.539464 -0.0377278 0.321945 -0.00940276 0.169982 0.12381C0.0182386 0.257021 -0.038259 0.468653 0.0264278 0.659943L1.6651 5.49881L0.0264282 10.3377C-0.0382586 10.529 0.018239 10.7406 0.169983 10.8738C0.321943 11.007 0.539476 11.0353 0.720764 10.9461L10.8604 5.95389C10.9162 5.92859 10.9669 5.89368 11.0098 5.85037C11.0124 5.84775 11.0141 5.84425 11.0167 5.84158C11.076 5.77899 11.121 5.70165 11.1417 5.61307C11.1444 5.60119 11.1457 5.58882 11.1475 5.57693C11.1488 5.56913 11.1505 5.56138 11.1514 5.5535L11.1534 5.52811L11.1534 5.46951C11.1532 5.4656 11.1527 5.46171 11.1524 5.45779ZM1.36041 9.51834L2.55182 5.99979L8.50494 5.99979L1.36041 9.51834ZM2.55182 4.99783L1.36041 1.48026L8.50494 4.99783L2.55182 4.99783Z" fill="#5F5F5F"/>
</svg>
